<?xml version="1.0" encoding="utf-8"?>
<!-- Generator: Adobe Illustrator 26.3.1, SVG Export Plug-In . SVG Version: 6.00 Build 0)  -->
<svg version="1.1" id="_лой_1" xmlns="http://www.w3.org/2000/svg" xmlns:xlink="http://www.w3.org/1999/xlink" x="0px" y="0px"
	 viewBox="0 0 218.2 182.9" style="enable-background:new 0 0 218.2 182.9;" xml:space="preserve">
<style type="text/css">
	.st0{fill:#FFFFFF;stroke:#FFFFFF;stroke-width:4;stroke-miterlimit:10;}
	.st1{fill:#FFFFFF;stroke:#FFFFFF;stroke-width:2;stroke-miterlimit:10;}
	.st2{fill:#FFFFFF;stroke:#FFFFFF;stroke-width:3;stroke-miterlimit:10;}
	.st3{fill:#FFFFFF;stroke:#FFFFFF;stroke-width:2.7438;stroke-miterlimit:10;}
	.st4{fill:#FFFFFF;stroke:#FFFFFF;stroke-miterlimit:10;}
</style>
<g>
	<path class="st0" d="M111.5,118.3c9.8,0.1,18.6-3.9,25-10.4l-4.2,0c-5.6,4.7-12.8,7.6-20.7,7.5c-7.9-0.1-15.1-3.1-20.5-7.9l-4.2,0
		C93,114,101.8,118.2,111.5,118.3L111.5,118.3z"/>
	<path class="st1" d="M109.8,8.9c-33.2,0-61.4,21.6-71.2,51.5h1.3c9.8-29.2,37.5-50.3,69.9-50.3c40.7,0,73.7,33.1,73.7,73.7
		s-33.1,73.7-73.7,73.7c-31.9,0-59.2-20.4-69.4-48.9H39c10.3,29.2,38.1,50.2,70.8,50.2c41.4,0,75-33.6,75-75S151.1,8.9,109.8,8.9z"
		/>
	<path class="st2" d="M111.6,28.9c-21.4,0-39.9,12.4-48.8,30.4h2.3C73.9,42.5,91.5,31,111.6,31s37.7,11.5,46.4,28.3h2.4
		C151.5,41.3,133,28.9,111.6,28.9L111.6,28.9z"/>
	<path class="st2" d="M111.7,137.7c21.2,0,39.6-12.2,48.5-29.9h-2.4c-8.8,16.5-26.2,27.8-46.2,27.8s-37.4-11.3-46.2-27.8h-2.4
		C72.1,125.5,90.5,137.7,111.7,137.7L111.7,137.7z"/>
	<path class="st0" d="M111.7,48.9c-9.8,0-18.6,4.1-24.9,10.6H91c5.5-4.8,12.7-7.7,20.6-7.7s15.1,2.9,20.6,7.7h4.2
		C130.2,53,121.4,48.9,111.7,48.9L111.7,48.9z"/>
	<path class="st3" d="M66,83.2c2-1.4,3-3.4,3-6.1c0-2.2-0.7-4-2.1-5.3c-1.4-1.3-3.4-2-5.9-2h-6.4v28.8h8c2.7,0,4.8-0.7,6.5-2.2
		c1.7-1.5,2.5-3.5,2.5-6c0-1.9-0.5-3.5-1.6-4.8C68.9,84.3,67.6,83.5,66,83.2L66,83.2z M67.4,94.8c-0.6,0.5-1.3,0.9-2,1.2
		c-0.8,0.2-1.4,0.4-1.9,0.4c-0.5,0-1.2,0.1-2.1,0.1h-4.6V84.7H61c2.3,0,4.1,0.3,5.2,0.8c2,0.9,2.9,2.6,2.9,5.1
		C69.2,92.3,68.6,93.8,67.4,94.8L67.4,94.8z M64.9,81.5c-0.9,0.8-2.2,1.2-3.8,1.2h-4.3V71.8h3.4c2.1,0,3.6,0.4,4.6,1.2
		c1.2,1,1.8,2.4,1.8,4.3C66.7,79.1,66.1,80.5,64.9,81.5L64.9,81.5z"/>
	<path class="st3" d="M90,71.7c-1.6-1.3-3.6-2-6.1-2h-5.7v28.8h2.3V85h3.5c2.5,0,4.6-0.7,6.1-2c1.5-1.4,2.3-3.3,2.3-5.6
		C92.4,74.9,91.6,73.1,90,71.7L90,71.7z M84,82.9h-3.6V71.8h3.3c2,0,3.6,0.5,4.7,1.5c1.1,1,1.7,2.4,1.7,4.1c0,1.7-0.5,3.1-1.6,4.1
		C87.3,82.4,85.8,82.9,84,82.9L84,82.9z"/>
	<path class="st3" d="M111.5,69.4c-4.2,0-7.7,1.5-10.6,4.3s-4.3,6.4-4.3,10.5c0,4.1,1.5,7.7,4.3,10.5c2.9,2.8,6.4,4.3,10.6,4.3
		s7.7-1.4,10.6-4.3c2.9-2.8,4.3-6.4,4.3-10.5s-1.5-7.7-4.3-10.5C119.3,70.8,115.7,69.4,111.5,69.4z M111.5,96.9
		c-3.6,0-6.6-1.2-9-3.7c-2.4-2.4-3.6-5.5-3.6-9s1.2-6.6,3.6-9.1c2.4-2.4,5.4-3.7,9-3.7s6.6,1.2,9,3.7c2.4,2.4,3.6,5.5,3.6,9.1
		c0,3.6-1.2,6.6-3.6,9C118.1,95.7,115.1,96.9,111.5,96.9z"/>
	<path class="st3" d="M147.6,71.7c-1.6-1.3-3.6-2-6.1-2h-5.7v28.8h2.3V85h3.5c2.5,0,4.6-0.7,6.1-2c1.5-1.4,2.3-3.3,2.3-5.6
		C150,74.9,149.2,73.1,147.6,71.7L147.6,71.7z M141.7,82.9h-3.6V71.8h3.3c2,0,3.6,0.5,4.7,1.5c1.1,1,1.7,2.4,1.7,4.1
		c0,1.7-0.5,3.1-1.6,4.1C145,82.4,143.5,82.9,141.7,82.9L141.7,82.9z"/>
	<g>
		<path class="st4" d="M162.1,68.9h3.7L177,99.4h-4.6L164,74.8l-8.5,24.6h-4.6L162.1,68.9z M156.1,88.6h16.1v4.1h-16.1V88.6z"/>
	</g>
	<g>
		<path class="st4" d="M34,68.9h3.7l11.3,30.5h-4.6l-8.5-24.6l-8.5,24.6h-4.6L34,68.9z M27.9,88.6H44v4.1H27.9V88.6z"/>
	</g>
</g>
</svg>
