<svg width="132" height="119" viewBox="0 0 132 119" fill="none" xmlns="http://www.w3.org/2000/svg">
<path d="M72.0431 0C45.7352 0 23.3625 17.1622 15.5286 40.8799H16.5746C24.372 17.7235 46.2898 0.996261 72.0431 0.996261C104.302 0.996261 130.544 27.2411 130.544 59.5C130.544 91.7589 104.299 118.004 72.0398 118.004C46.6916 118.004 25.0595 101.795 16.9532 79.1994H15.8972C24.0466 102.356 46.1337 119 72.0398 119C104.847 119 131.54 92.3102 131.54 59.5C131.54 26.6898 104.85 0 72.0431 0Z" fill="white"/>
<path d="M72.0896 16.7639C55.1366 16.7639 40.4418 26.6103 33.4148 40.8801H35.2745C42.1653 27.5534 56.083 18.4244 72.0896 18.4244C88.0962 18.4244 102.014 27.5534 108.905 40.8801H110.764C103.738 26.6103 89.0427 16.7639 72.0896 16.7639Z" fill="white"/>
<path d="M72.0895 102.92C88.8865 102.92 103.465 93.2566 110.568 79.196H108.699C101.738 92.3068 87.94 101.26 72.0895 101.26C56.239 101.26 42.4408 92.3102 35.4802 79.196H33.6106C40.7139 93.2566 55.2959 102.92 72.0895 102.92Z" fill="white"/>
<path d="M91.0915 79.1995H87.6179C83.3107 82.7096 77.818 84.815 71.8404 84.815C65.8629 84.815 60.3735 82.7063 56.063 79.1995H52.5894C57.5341 84.1044 64.3386 87.1397 71.8371 87.1397C79.3423 87.1397 86.1467 84.1044 91.0915 79.1995Z" fill="white"/>
<path d="M71.8438 32.4417C64.0962 32.4417 57.0958 35.6861 52.1145 40.88H55.4819C59.8721 37.0743 65.5906 34.7663 71.8438 34.7663C78.097 34.7663 83.8155 37.0776 88.2057 40.88H91.5731C86.5918 35.6861 79.5914 32.4417 71.8438 32.4417Z" fill="white"/>
<path d="M0 72.9431H2.132L5.41966 64.8534H15.6878L18.9754 72.9431H21.1074L10.6301 46.9573L0 72.9431ZM10.5902 51.9818L14.9638 63.0402H6.14361L10.5902 51.9818Z" fill="white"/>
<path d="M34.4506 59.6096C36.1841 58.4008 37.0608 56.6175 37.0608 54.3029C37.0608 52.3934 36.4332 50.8425 35.1978 49.6935C33.9658 48.5478 32.2489 47.97 30.097 47.97H24.5378V72.9429H31.4652C33.7632 72.9429 35.6561 72.302 37.0974 71.0367C38.5453 69.7648 39.2792 68.028 39.2792 65.8695C39.2792 64.2389 38.8076 62.8242 37.8745 61.6652C37.021 60.6026 35.872 59.9118 34.4506 59.6096ZM35.7126 69.6984C35.2144 70.1467 34.62 70.4855 33.9459 70.698C33.2618 70.9138 32.6939 71.0434 32.2655 71.0799C31.8305 71.1164 31.2228 71.1363 30.4689 71.1363H26.4938V60.938H30.17C32.1559 60.938 33.6868 61.1704 34.7163 61.6254C36.4166 62.4158 37.2435 63.8636 37.2435 66.0554C37.2468 67.5697 36.7288 68.7951 35.7126 69.6984ZM33.5009 58.1285C32.6972 58.7894 31.6013 59.1248 30.2431 59.1248H26.4938V49.7798H29.4693C31.2692 49.7798 32.6142 50.1153 33.4643 50.7761C34.527 51.6495 35.065 52.8981 35.065 54.4888C35.065 56.053 34.5403 57.2784 33.5009 58.1285Z" fill="white"/>
<path d="M54.4754 49.6868C53.0973 48.5477 51.3206 47.9666 49.1986 47.9666H44.2671V72.9395H46.2264V61.2301H49.2384C51.4368 61.2301 53.2268 60.6323 54.5585 59.4534C55.8934 58.2679 56.5709 56.6241 56.5709 54.5651C56.5676 52.4763 55.8636 50.8358 54.4754 49.6868ZM49.3082 59.4202H46.2231V49.7797H49.0491C50.7727 49.7797 52.1342 50.2115 53.094 51.0682C54.0504 51.9184 54.5352 53.1073 54.5352 54.6016C54.5352 56.0728 54.057 57.255 53.1106 58.1184C52.1641 58.9819 50.8823 59.4202 49.3082 59.4202Z" fill="white"/>
<path d="M72.3582 47.6348C68.7318 47.6348 65.6368 48.8934 63.1528 51.3774C60.6688 53.8614 59.4102 56.9332 59.4102 60.5098C59.4102 64.0863 60.6688 67.1515 63.1528 69.6222C65.6368 72.093 68.7318 73.3449 72.3582 73.3449C75.9846 73.3449 79.0797 72.093 81.5637 69.6222C84.0477 67.1515 85.3063 64.083 85.3063 60.5098C85.3063 56.9365 84.0477 53.8614 81.5637 51.3774C79.0797 48.8967 75.9846 47.6348 72.3582 47.6348ZM72.3582 71.5384C69.2665 71.5384 66.6463 70.4691 64.5708 68.357C62.4952 66.2449 61.4425 63.6048 61.4425 60.5131C61.4425 57.3948 62.4952 54.7447 64.5708 52.6327C66.6463 50.5206 69.2665 49.4513 72.3582 49.4513C75.45 49.4513 78.0701 50.5206 80.1457 52.6327C82.2212 54.7447 83.2739 57.3981 83.2739 60.5131C83.2739 63.6048 82.2212 66.2449 80.1457 68.357C78.0701 70.4657 75.45 71.5384 72.3582 71.5384Z" fill="white"/>
<path d="M100.506 49.6868C99.1279 48.5477 97.3513 47.9666 95.2292 47.9666H90.2944V72.9395H92.2537V61.2301H95.2658C97.4642 61.2301 99.2541 60.6323 100.586 59.4534C101.921 58.2679 102.598 56.6241 102.598 54.5651C102.598 52.4763 101.894 50.8358 100.506 49.6868ZM95.3388 59.4202H92.2537V49.7797H95.0798C96.8033 49.7797 98.1649 50.2115 99.1246 51.0682C100.081 51.9184 100.566 53.1073 100.566 54.6016C100.566 56.0728 100.088 57.255 99.1412 58.1184C98.1948 58.9819 96.9129 59.4202 95.3388 59.4202Z" fill="white"/>
<path d="M113.036 46.9539L102.406 72.9397H104.538L107.825 64.85H118.093L121.381 72.9397H123.513L113.036 46.9539ZM112.996 51.9817L117.369 63.0401H108.549L112.996 51.9817Z" fill="white"/>
</svg>
